<svg width="32" height="32" viewBox="0 0 32 32" fill="none" xmlns="http://www.w3.org/2000/svg">
<rect width="32" height="32" rx="8" fill="#232323"/>
<path d="M22.1476 17.0859C21.1142 17.3628 20.5975 16.8719 20.5671 15.7997L20.3746 9.32717C20.3746 9.15935 20.3645 8.97327 20.3645 8.83691C20.3645 7.67264 21.0332 6.81169 22.1578 6.51036C23.2722 6.21174 23.9308 6.71706 23.9308 7.88133C23.9308 8.01768 23.9207 8.2092 23.9105 8.37973L23.7282 14.9527C23.6978 16.0412 23.1709 16.8117 22.1476 17.0859ZM22.1476 22.2359C21.0838 22.521 20.2227 21.9231 20.2227 20.8637C20.2227 19.8148 21.0838 18.7555 22.1476 18.4704C23.2013 18.1881 24.0625 18.786 24.0625 19.8349C24.0625 20.8942 23.2013 21.9536 22.1476 22.2359Z" fill="white"/>
<path d="M9.85653 25.4858C8.64671 25.81 7.9375 25.2442 7.9375 23.9269V12.4924C7.9375 11.1752 8.64671 10.2293 9.85653 9.90514L16.7504 8.05793C17.7829 7.78126 18.4504 8.18547 18.4504 9.20043C18.4504 10.2154 17.7621 10.9829 16.7504 11.254L11.7651 12.5898V15.6886L16.521 14.4143C17.4492 14.1656 18.0645 14.5406 18.0645 15.4583C18.0645 16.3761 17.4701 17.0753 16.521 17.3296L11.7651 18.6039V21.7784L16.7504 20.4425C17.7621 20.1715 18.4504 20.5701 18.4504 21.585C18.4504 22.6 17.7829 23.3619 16.7504 23.6386L9.85653 25.4858Z" fill="white"/>
</svg>
