<svg xmlns="http://www.w3.org/2000/svg" width="109" height="75" fill="currentColor" viewBox="0 0 109 75">
  <path d="m2.554 42.931 11.527-2.136c1.395-.259 2.302-1.23 2.302-2.563 0-1.333-.924-1.965-2.302-1.71l-8.99 1.666v-6.22l8.553-1.586c1.277-.236 2.118-1.144 2.118-2.375 0-1.23-.857-1.823-2.118-1.59l-8.553 1.586v-5.93l8.99-1.667c1.378-.255 2.302-1.23 2.302-2.563 0-1.333-.907-1.968-2.302-1.71L2.554 18.27C.958 18.566.017 19.732.017 21.424V40.7c0 1.709.94 2.526 2.537 2.23Zm18.476-3.1c1.428-.264 2.251-1.306 2.251-2.827v-14.56l.135-.025 5.998 13.825c.42.981 1.126 1.346 2.202 1.147 1.058-.196 1.73-.8 2.167-1.974l6-16.031.134-.025v14.56c0 1.521.823 2.257 2.251 1.993 1.429-.265 2.269-1.31 2.269-2.83V13.498c0-2.101-1.21-3.108-3.26-2.728-1.781.33-2.773 1.283-3.512 3.317l-5.999 16.27-.134.026-6.016-14.044c-.74-1.777-1.714-2.349-3.478-2.021-2.067.383-3.277 1.854-3.277 3.94v19.584c0 1.521.84 2.254 2.268 1.99Zm28.994-5.698 8.2-1.52c5.176-.96 8.385-4.271 8.385-8.612 0-3.264-2.42-5.26-5.713-4.905v-.137c2.57-.87 4.554-3.493 4.554-6.193 0-3.777-2.857-5.623-7.41-4.78l-8.016 1.486c-1.596.296-2.538 1.462-2.538 3.154v19.277c0 1.709.942 2.526 2.538 2.23Zm2.537-14.877v-6.409l4.167-.772c2.37-.44 3.73.436 3.73 2.419 0 2.085-1.545 3.585-4.25 4.086l-3.647.676Zm0 10.561v-7.16l4.252-.788c2.99-.555 4.62.374 4.62 2.681 0 2.358-1.579 3.916-4.503 4.458l-4.369.81Zm18.492.418L82.581 28.1c1.394-.259 2.302-1.23 2.302-2.563 0-1.333-.924-1.965-2.302-1.71l-8.99 1.667v-6.221l8.553-1.585c1.277-.237 2.117-1.145 2.117-2.375s-.857-1.824-2.117-1.59l-8.553 1.585v-5.93l8.99-1.666c1.378-.256 2.302-1.23 2.302-2.563 0-1.333-.908-1.968-2.302-1.71L71.053 5.575c-1.596.296-2.537 1.461-2.537 3.153v19.277c0 1.71.941 2.526 2.537 2.23Zm18.745-3.474 6.721-1.245c7.276-1.349 11.561-6.74 11.561-14.567 0-7.828-4.285-11.443-11.56-10.094L89.797 2.1c-1.597.296-2.538 1.461-2.538 3.153V24.53c0 1.71.941 2.526 2.538 2.23Zm2.537-4.742V5.886l3.58-.664c4.469-.828 6.99 1.542 6.99 6.703 0 5.332-2.454 8.59-6.99 9.43l-3.58.664ZM7.167 74.54c1.368-.254 2.146-1.087 2.564-2.717l3.442-13.118.13-.024 3.456 11.84c.418 1.504 1.181 2.022 2.578 1.763 1.34-.248 2.089-1.06 2.521-2.694l4.35-16.831c.144-.584.23-1.127.23-1.508 0-1.23-.82-1.84-2.146-1.594-1.138.21-1.83.969-2.103 2.294l-3.11 14.273-.116.021-3.5-13.004c-.317-1.245-1.037-1.756-2.218-1.537-1.21.224-1.901.953-2.233 2.392l-3.5 14.271-.115.022-3.11-13.12c-.26-1.212-.951-1.728-2.09-1.517-1.324.245-2.145 1.16-2.145 2.39 0 .395.086.906.23 1.422l4.335 15.192c.432 1.502 1.181 2.037 2.55 1.784Zm29.724-5.436c6.15-1.14 10.025-6.047 10.025-12.771 0-6.738-3.875-10.224-10.025-9.085-6.164 1.143-10.025 6.063-10.025 12.8 0 6.724 3.86 10.198 10.025 9.056Zm0-3.692c-3.413.633-5.588-1.762-5.588-6.186 0-4.438 2.189-7.656 5.588-8.286 3.4-.63 5.574 1.78 5.574 6.218 0 4.423-2.175 7.624-5.574 8.254Zm14.025 1.048c1.368-.253 2.175-1.252 2.175-2.702v-5.742l3.701-.686 3.457 5.73c.706 1.16 1.181 1.452 2.218 1.26 1.268-.235 2.19-1.256 2.19-2.428 0-.512-.101-.874-.462-1.438L61.2 55.736c2.29-1.42 3.572-3.914 3.572-6.55 0-4.175-2.737-6.232-7.519-5.345l-6.337 1.174c-1.368.254-2.175 1.253-2.175 2.703v16.846c0 1.45.82 2.148 2.175 1.897Zm2.175-11.652v-6.739l3.701-.686c2.16-.4 3.515.667 3.515 2.718 0 2.095-1.282 3.607-3.471 4.012l-3.745.694Zm15.739 8.303c1.368-.253 2.174-1.252 2.174-2.703V55.97l2.074-2.596 6.194 6.6c.677.754 1.282.979 2.175.813 1.195-.221 2.102-1.327 2.102-2.528 0-.6-.288-1.177-.936-1.877l-6.236-6.55 5.732-7.17c.547-.688.764-1.211.764-1.826 0-1.143-.893-1.871-2.046-1.657-.72.133-1.267.513-1.872 1.299l-7.821 10.136-.13.024v-7.324c0-1.465-.806-2.165-2.175-1.912-1.368.254-2.174 1.253-2.174 2.718v17.095c0 1.45.806 2.15 2.174 1.896Zm23.804-4.338c5.185-.962 8.368-4.159 8.368-8.29 0-3.208-1.9-4.657-6.308-4.734l-2.19-.048c-2.463-.042-3.456-.663-3.456-1.967 0-1.553 1.426-2.842 3.572-3.24 1.786-.331 3.125.08 3.816 1.548.49.818 1.095 1.101 2.074.92 1.11-.206 1.859-1.062 1.859-2.117 0-.381-.058-.678-.159-.952-.922-2.583-3.788-3.678-7.59-2.973-4.624.857-7.937 4.034-7.937 7.901 0 3.15 2.031 4.795 6.18 4.86l2.203.032c2.607.059 3.587.668 3.587 2.06 0 1.553-1.585 2.989-3.918 3.421-1.988.369-3.615-.062-4.292-1.548-.519-.841-1.11-1.084-2.002-.918-1.124.208-1.916 1.131-1.916 2.303 0 .396.087.79.23 1.144.836 2.16 3.587 3.393 7.88 2.598Zm12.988-9.513c1.195-.22 1.829-1.07 1.872-2.324l.216-10.176c.015-.15.015-.325.015-.443 0-1.347-.807-2.003-2.089-1.766-1.296.24-2.117 1.198-2.117 2.546 0 .117.014.29.014.437l.231 10.094c.029 1.24.662 1.854 1.858 1.633Zm0 7.12c1.311-.243 2.348-1.446 2.348-2.735s-1.037-2.108-2.348-1.865c-1.311.243-2.348 1.446-2.348 2.735 0 1.29 1.037 2.108 2.348 1.865Z" />
</svg>
