<svg xmlns="http://www.w3.org/2000/svg" width="136" height="101" fill="currentColor" viewBox="0 0 136 101">
  <path d="M3.837 60.974c-1.915.513-3.038-.382-3.038-2.467V40.408c0-2.085 1.123-3.582 3.038-4.095l10.911-2.923c1.634-.438 2.69.201 2.69 1.808 0 1.606-1.089 2.821-2.69 3.25l-7.89 2.114v4.905l7.527-2.017c1.47-.393 2.443.2 2.443 1.653 0 1.452-.94 2.559-2.443 2.962l-7.527 2.017v5.024l7.89-2.114c1.601-.43 2.69.202 2.69 1.808s-1.056 2.812-2.69 3.25L3.837 60.974Zm19.379-4.817c-1.7.456-2.674-.343-2.674-2.189v-18.44c0-2.58 1.42-4.447 3.93-5.12 2.112-.566 3.251.018 4.11 2.095l4.968 11.69.132-.035 4.953-14.349c.875-2.542 2.014-3.735 4.143-4.306 2.493-.668 3.912.421 3.912 3.02v18.44c0 1.845-.974 3.165-2.674 3.62-1.684.452-2.658-.346-2.658-2.192V35.522l-.115.031-5.3 14.99c-.445 1.28-1.155 2-2.31 2.31-1.156.31-1.915-.016-2.344-1.063l-5.283-12.154-.132.035V52.54c0 1.845-.974 3.166-2.657 3.617Zm30.11-8.444c-1.915.513-3.037-.382-3.037-2.467V27.148c0-2.085 1.122-3.582 3.037-4.095l8.04-2.155c4.688-1.256 7.51.33 7.51 4.14 0 2.769-2.014 5.513-4.655 6.597v.136c3.22-.708 5.761 1.089 5.761 4.37 0 4.324-3.219 7.972-8.32 9.339l-8.336 2.233Zm3.021-15.421 3.12-.836c2.196-.588 3.516-2.019 3.516-3.796 0-1.726-1.188-2.433-3.219-1.89l-3.417.916v5.606Zm0 10.169 3.599-.965c2.492-.668 3.879-2.167 3.879-4.252 0-2.017-1.42-2.764-3.912-2.096l-3.566.955v6.358Zm19.231-.711c-1.915.514-3.037-.382-3.037-2.467V21.185c0-2.085 1.123-3.582 3.037-4.095l10.912-2.924c1.634-.437 2.69.202 2.69 1.809 0 1.606-1.089 2.821-2.69 3.25l-7.89 2.114v4.905l7.527-2.017c1.469-.393 2.443.2 2.443 1.653 0 1.452-.941 2.559-2.443 2.961l-7.528 2.017v5.025l7.89-2.114c1.602-.43 2.692.201 2.692 1.808 0 1.606-1.057 2.812-2.691 3.25l-10.912 2.924Zm19.743-5.29c-1.915.514-3.037-.382-3.037-2.467V15.895c0-2.085 1.122-3.582 3.037-4.095l6.636-1.778c7.198-1.929 11.424 1.263 11.424 9.124 0 7.879-4.243 13.612-11.424 15.537l-6.636 1.778Zm3.021-5.867 2.823-.757c3.945-1.057 6.058-4.101 6.058-9.023 0-4.631-2.228-6.546-6.058-5.52l-2.823.756v14.544Zm27.172-1.795c-5.167 1.384-8.287.204-9.278-2.077a3.45 3.45 0 0 1-.313-1.471c0-1.573 1.089-2.924 2.624-3.335 1.173-.314 1.965-.1 2.741.923.809 1.321 2.41 1.542 4.325 1.029 2.36-.633 3.895-2.138 3.895-3.642 0-1.367-1.006-1.798-3.829-1.606l-2.46.181c-4.738.347-7.214-1.4-7.214-5.16 0-4.75 3.979-8.875 9.459-10.344 4.556-1.22 7.891-.303 9.046 2.515.165.383.248.771.248 1.284 0 1.453-1.024 2.7-2.542 3.125-1.321.354-2.146.08-2.856-.927-.776-1.33-2.097-1.574-3.846-1.105-2.196.588-3.483 1.958-3.483 3.41 0 1.3 1.073 1.73 3.664 1.548l2.443-.176c5.085-.354 7.396 1.163 7.396 5.042 0 4.956-3.747 9.105-10.02 10.786ZM8.461 98.1c-1.876.503-2.886-.156-3.464-2.226l-4.41-15.52c-.192-.712-.32-1.49-.32-2.039 0-1.71 1.09-2.998 2.902-3.483 1.54-.413 2.454.205 2.807 1.904l2.886 13.122.128-.035 3.368-14.93c.417-1.855 1.299-2.872 2.854-3.288 1.508-.404 2.454.189 2.839 1.746l3.383 13.138.128-.034 2.887-14.67c.353-1.887 1.267-2.995 2.806-3.407 1.812-.486 2.903.218 2.903 1.928 0 .531-.129 1.362-.321 2.21l-4.426 17.938c-.577 2.33-1.587 3.53-3.416 4.02-1.908.51-2.95-.123-3.511-2.197L15.276 80.95l-.128.034-3.207 13.045c-.545 2.32-1.62 3.572-3.48 4.07Zm35.668-9.507c-7.024 1.882-11.434-1.685-11.434-9.321 0-7.637 4.426-13.588 11.434-15.465 7.007-1.878 11.417 1.705 11.417 9.342 0 7.636-4.41 13.566-11.417 15.444Zm0-4.948c3.287-.88 5.436-4.345 5.436-8.894 0-4.565-2.149-6.878-5.436-5.997-3.288.88-5.436 4.345-5.436 8.91 0 4.55 2.132 6.867 5.436 5.981Zm18.204.037c-1.86.498-2.95-.372-2.95-2.38v-17.98c0-2.026 1.09-3.48 2.95-3.978l6.96-1.865c5.773-1.547 8.884.575 8.884 5.522 0 2.822-1.251 5.68-3.608 7.54l2.838 4.237c.513.743.625 1.21.625 1.925 0 1.61-1.218 3.099-2.934 3.558-1.427.383-2.037.032-3.031-1.561l-3.432-5.473-3.367.903v5.595c0 2.008-1.075 3.458-2.935 3.957Zm2.935-13.72 3.448-.923c2.164-.58 3.447-2.235 3.447-4.31 0-2.043-1.363-3.055-3.463-2.492l-3.432.92v6.806Zm19.776 7.618c-1.86.498-2.95-.355-2.95-2.38V56.855c0-2.026 1.09-3.463 2.95-3.962 1.86-.498 2.934.36 2.934 2.385v7.205l.129-.034 7.873-11.141c.834-1.187 1.572-1.783 2.566-2.05 1.539-.412 2.774.502 2.774 2.063 0 .897-.304 1.642-1.09 2.733l-5.533 7.525 5.918 5.918c.962.971 1.363 1.777 1.363 2.624 0 1.66-1.219 3.264-2.823 3.694-1.234.331-2.084.077-3.03-.914l-5.998-6.146-2.149 2.9v3.968c0 2.025-1.074 3.458-2.934 3.957Zm29.173-7.767c-5.019 1.345-8.05.198-9.012-2.018a3.335 3.335 0 0 1-.305-1.43c0-1.527 1.058-2.84 2.55-3.239 1.138-.305 1.908-.096 2.662.897.785 1.284 2.341 1.498 4.201 1 2.293-.615 3.785-2.077 3.785-3.538 0-1.328-.979-1.747-3.721-1.56l-2.389.175c-4.602.337-7.008-1.36-7.008-5.012 0-4.615 3.865-8.622 9.189-10.049 4.426-1.186 7.665-.294 8.787 2.444.161.372.241.749.241 1.247 0 1.41-.994 2.624-2.47 3.036-1.282.343-2.084.077-2.774-.9-.753-1.293-2.036-1.53-3.736-1.075-2.133.572-3.384 1.903-3.384 3.314 0 1.262 1.043 1.68 3.56 1.503l2.374-.17c4.939-.345 7.184 1.129 7.184 4.897 0 4.815-3.641 8.845-9.734 10.478Zm17.306-12.656c-1.635.438-2.453-.339-2.501-2.036l-.305-10.244c0-.266-.016-.56-.016-.776 0-1.843 1.058-3.206 2.838-3.683 1.764-.472 2.807.327 2.807 2.17 0 .216-.016.52-.032.789l-.289 10.404c-.048 1.722-.882 2.942-2.502 3.376Zm0 8.151c-1.683.451-3.046-.495-3.046-2.172 0-1.66 1.363-3.337 3.046-3.788 1.668-.447 3.031.5 3.031 2.16 0 1.677-1.363 3.353-3.031 3.8Z"/>
</svg>
